<svg width="56" height="57" viewBox="0 0 56 57" fill="none" xmlns="http://www.w3.org/2000/svg">
<path d="M28.2917 6.75C30.1434 6.75 31.9194 7.48562 33.2288 8.79502C34.5382 10.1044 35.2738 11.8804 35.2738 13.7321V27.6964C35.2738 29.5482 34.5382 31.3241 33.2288 32.6335C31.9194 33.943 30.1434 34.6786 28.2917 34.6786C26.4399 34.6786 24.664 33.943 23.3545 32.6335C22.0451 31.3241 21.3095 29.5482 21.3095 27.6964V13.7321C21.3095 11.8804 22.0451 10.1044 23.3545 8.79502C24.664 7.48562 26.4399 6.75 28.2917 6.75ZM44.5833 27.6964C44.5833 35.9121 38.5089 42.6848 30.619 43.8252V50.9702H25.9643V43.8252C18.0745 42.6848 12 35.9121 12 27.6964H16.6548C16.6548 30.7827 17.8808 33.7426 20.0631 35.925C22.2455 38.1073 25.2054 39.3333 28.2917 39.3333C31.378 39.3333 34.3379 38.1073 36.5202 35.925C38.7025 33.7426 39.9286 30.7827 39.9286 27.6964H44.5833Z" fill="white"/>
</svg>
